# xmcd
#
# Track frame offsets:
#	150
#	14814
#	36976
#	49406
#	65308
#	85204
#	113280
#	128222
#	142262
#	159348
#	172597
#	184753
#	196872
#	210881
#	225553
#	239537
#	253763
#
# Disc length: 3907 seconds
#
# Revision: 1
# Processed by: cddbd v1.4PL0 Copyright (c) Steve Scherf et al.
# Submitted via: audiograbber 1.81.02
#
DISCID=e30f4111
DTITLE=Various Artist - 100% Blues [CD2]
DYEAR=2002
DGENRE=Blues
TTITLE0=Christine Perfect - I'd Rather Go Blind
TTITLE1=Jeff Beck - I Ain't Superstitious
TTITLE2=Johnny Winter - Johnny Be Goode
TTITLE3=Rick Derringer - Rock And Roll, Hoochie Koo
TTITLE4=ZZ Top - It's Only Love
TTITLE5=John Campbell - When the Levee Breaks
TTITLE6=The Paul Butterfield Blues Band - Walkin' Blues
TTITLE7=Taj Mahal - Fishin' Blues
TTITLE8=Midge Marsden - Burning Rain
TTITLE9=John Mayall - Sitting in the Rain
TTITLE10=John Hammond - Shake For Me
TTITLE11=Muddy Waters - The Same Thing
TTITLE12=Howlin' Wolf - Smokestack Lightnin'
TTITLE13=Johnnie Taylor - Blues in the Night
TTITLE14=T-Bone Walker - Call it Stormy Monday
TTITLE15=Buddy Guy and Junior Wells - Poor Man's Plea
TTITLE16=Duane Allman - Goin Down Slow
EXTD=
EXTT0=
EXTT1=
EXTT2=
EXTT3=
EXTT4=
EXTT5=
EXTT6=
EXTT7=
EXTT8=
EXTT9=
EXTT10=
EXTT11=
EXTT12=
EXTT13=
EXTT14=
EXTT15=
EXTT16=
PLAYORDER=
